<svg width="155" height="32" viewBox="0 0 155 32" fill="none" xmlns="http://www.w3.org/2000/svg">
<g clip-path="url(#clip0_665_2873)">
<rect width="32" height="32" rx="8" fill="white"/>
<rect width="32" height="32" rx="8" fill="url(#paint0_linear_665_2873)"/>
<path fill-rule="evenodd" clip-rule="evenodd" d="M15.9998 2.03861C8.28923 2.03861 2.03861 8.28923 2.03861 15.9998C2.03861 23.7103 8.28923 29.9609 15.9998 29.9609C23.7103 29.9609 29.9609 23.7103 29.9609 15.9998C29.9609 8.28923 23.7103 2.03861 15.9998 2.03861ZM1.96094 15.9998C1.96094 8.24634 8.24634 1.96094 15.9998 1.96094C23.7532 1.96094 30.0386 8.24634 30.0386 15.9998C30.0386 23.7532 23.7532 30.0386 15.9998 30.0386C8.24634 30.0386 1.96094 23.7532 1.96094 15.9998Z" fill="#D0D5DD"/>
<path fill-rule="evenodd" clip-rule="evenodd" d="M16 12.0777C13.8338 12.0777 12.0777 13.8338 12.0777 16C12.0777 18.1662 13.8338 19.9223 16 19.9223C18.1662 19.9223 19.9223 18.1662 19.9223 16C19.9223 13.8338 18.1662 12.0777 16 12.0777ZM12 16C12 13.7909 13.7909 12 16 12C18.2091 12 20 13.7909 20 16C20 18.2091 18.2091 20 16 20C13.7909 20 12 18.2091 12 16Z" fill="#D0D5DD"/>
<path fill-rule="evenodd" clip-rule="evenodd" d="M16 13.3199C14.52 13.3199 13.3203 14.5196 13.3203 15.9995C13.3203 17.4794 14.52 18.6791 16 18.6791C17.4799 18.6791 18.6796 17.4794 18.6796 15.9995C18.6796 14.5196 17.4799 13.3199 16 13.3199ZM13.2427 15.9995C13.2427 14.4767 14.4772 13.2422 16 13.2422C17.5228 13.2422 18.7572 14.4767 18.7572 15.9995C18.7572 17.5223 17.5228 18.7568 16 18.7568C14.4772 18.7568 13.2427 17.5223 13.2427 15.9995Z" fill="#D0D5DD"/>
<path d="M15.9609 0H16.0386V32H15.9609V0Z" fill="#D0D5DD"/>
<path d="M32 15.9609L32 16.0386L-3.39506e-09 16.0386L0 15.9609L32 15.9609Z" fill="#D0D5DD"/>
<path d="M26.6021 0H26.6797V32H26.6021V0Z" fill="#D0D5DD"/>
<path d="M10.6406 0H10.7183V32H10.6406V0Z" fill="#D0D5DD"/>
<path d="M21.2817 0H21.3594V32H21.2817V0Z" fill="#D0D5DD"/>
<path d="M5.32031 0H5.39798V32H5.32031V0Z" fill="#D0D5DD"/>
<path d="M32 26.6016L32 26.6792L-3.39506e-09 26.6792L0 26.6016L32 26.6016Z" fill="#D0D5DD"/>
<path d="M32 10.6406L32 10.7183L-3.39506e-09 10.7183L0 10.6406L32 10.6406Z" fill="#D0D5DD"/>
<path d="M32 21.2812L32 21.3589L-3.39506e-09 21.3589L0 21.2812L32 21.2812Z" fill="#D0D5DD"/>
<path d="M32 5.32031L32 5.39798L-3.39506e-09 5.39798L0 5.32031L32 5.32031Z" fill="#D0D5DD"/>
<g clip-path="url(#clip1_665_2873)">
<path d="M11.1148 27.0003C10.9494 26.8709 10.8987 26.7004 10.9026 26.494C10.9114 26.0158 10.9026 25.5377 10.9026 25.0775C10.6236 24.9594 10.3447 24.8801 10.1054 24.7332C9.3749 24.2832 9.00828 23.5997 9.00607 22.7379C8.99725 19.5112 8.99008 16.2844 9.00607 13.0583C9.0171 10.9932 10.4262 9.31008 12.4242 8.91405C12.8134 8.83698 12.8134 8.83698 12.8134 8.42295C12.8134 7.12724 12.8134 5.83208 12.8134 4.53749C12.8134 4.08015 12.8906 4.00195 13.3366 4.00195H18.708C19.094 4.00195 19.1866 4.0959 19.1866 4.49249C19.1866 5.86959 19.1915 7.24893 19.1827 8.62434C19.1827 8.81898 19.2417 8.88199 19.4231 8.90111C21.1801 9.08394 22.7629 10.6984 22.9515 12.5014C22.9808 12.7764 22.9955 13.0528 22.9956 13.3294C22.9989 16.4365 22.9989 19.5434 22.9956 22.6501C22.9956 23.5378 22.6648 24.2523 21.9106 24.7225C21.6719 24.8722 21.3924 24.9549 21.0958 25.0837C21.0958 25.5264 21.0897 26.0113 21.0985 26.4962C21.1024 26.7044 21.0489 26.8748 20.8863 27.0025L11.1148 27.0003ZM22.3318 22.4347V22.1686C22.3318 19.189 22.3318 16.2093 22.3318 13.2293C22.3362 12.9972 22.3209 12.7651 22.2861 12.5357C21.9801 10.7558 20.6051 9.54634 18.8337 9.52947C16.9483 9.51147 15.0617 9.50697 13.1762 9.52947C11.8051 9.54691 10.7642 10.1854 10.0888 11.4123C9.86516 11.8142 9.73324 12.2624 9.70293 12.7236H9.9852C12.8329 12.7236 15.6802 12.7236 18.5272 12.7236C18.6375 12.7236 18.7698 12.7089 18.8475 12.7652C18.9473 12.8378 19.0576 12.9733 19.0603 13.0842C19.0603 13.182 18.9413 13.312 18.8398 13.375C18.7566 13.4279 18.627 13.4138 18.5178 13.4138C15.6709 13.4138 12.8235 13.4138 9.97583 13.4138H9.68363C9.67812 13.5055 9.6704 13.5713 9.6704 13.6388C9.6704 16.6411 9.66544 19.6434 9.67702 22.6456C9.67555 22.9285 9.73188 23.2086 9.84241 23.4681C10.1434 24.1319 10.7069 24.3828 11.4004 24.3822C14.4238 24.3822 17.4472 24.3822 20.4706 24.3822C20.6465 24.3819 20.8223 24.3718 20.9971 24.3518C21.6035 24.2832 22.1885 23.7218 22.2563 23.1255H21.9944C19.1548 23.1255 16.3148 23.1255 13.4744 23.1255C13.3642 23.1255 13.2324 23.1407 13.1541 23.0844C13.0538 23.013 12.9364 22.8746 12.9397 22.7688C12.943 22.6631 13.072 22.5393 13.1756 22.469C13.2501 22.4184 13.3741 22.4358 13.4756 22.4358C16.3229 22.4358 19.1704 22.4358 22.0181 22.4358L22.3318 22.4347ZM18.5123 4.68713H13.5064V8.83586H14.9509C14.9509 8.3262 14.9509 7.83285 14.9509 7.34006C14.9509 7.07173 15.0573 6.92435 15.2761 6.91928C15.7602 6.9086 16.2442 6.9131 16.7283 6.91928C16.9102 6.91928 17.0073 7.03911 17.0431 7.20843C17.0549 7.28978 17.0584 7.37217 17.0536 7.45426C17.0536 7.91554 17.0536 8.37626 17.0536 8.8398H18.5123V4.68713ZM20.4122 25.0775H11.6V26.3112H20.4094L20.4122 25.0775ZM16.3716 7.60221H15.6334V8.8398H16.3716V7.60221Z" fill="#101828"/>
<path d="M20.7667 13.4125C20.6062 13.4125 20.4441 13.4249 20.2854 13.4092C20.1007 13.3912 19.9695 13.2967 19.9617 13.084C19.9546 12.8905 20.072 12.7465 20.2832 12.7341C20.6038 12.7175 20.9251 12.7175 21.2457 12.7341C21.4332 12.7443 21.5578 12.8607 21.5583 13.0716C21.5589 13.2826 21.4376 13.3884 21.2474 13.4092C21.0886 13.4244 20.9271 13.412 20.7667 13.412V13.4125Z" fill="#101828"/>
<path d="M11.2538 22.4248C11.4313 22.4349 11.6072 22.4355 11.7797 22.458C11.9523 22.4805 12.0355 22.593 12.0421 22.764C12.0493 22.9446 11.9644 23.088 11.7891 23.0976C11.4262 23.1173 11.0626 23.1173 10.6997 23.0976C10.5227 23.088 10.44 22.9412 10.4472 22.7629C10.4544 22.5941 10.5426 22.4777 10.7113 22.4574C10.8916 22.4361 11.074 22.4344 11.2538 22.4248Z" fill="#101828"/>
</g>
</g>
<rect x="0.15" y="0.15" width="31.7" height="31.7" rx="7.85" stroke="#D0D5DD" stroke-width="0.3"/>
<path d="M53.6364 12.6953C53.5121 12.2633 53.3375 11.8815 53.1126 11.5501C52.8877 11.2127 52.6125 10.9286 52.2869 10.6978C51.9673 10.4611 51.6004 10.2805 51.1861 10.1562C50.7777 10.032 50.3249 9.96982 49.8278 9.96982C48.8986 9.96982 48.0818 10.2006 47.3775 10.6623C46.6791 11.1239 46.1346 11.7957 45.744 12.6776C45.3533 13.5535 45.158 14.6248 45.158 15.8913C45.158 17.1579 45.3504 18.2351 45.7351 19.1229C46.1198 20.0107 46.6643 20.6883 47.3686 21.1559C48.0729 21.6175 48.9045 21.8484 49.8633 21.8484C50.7333 21.8484 51.4761 21.6945 52.0916 21.3867C52.7131 21.073 53.1866 20.6321 53.5121 20.0639C53.8435 19.4957 54.0092 18.824 54.0092 18.0487L54.7905 18.1641H50.103V15.2699H57.7113V17.5604C57.7113 19.1584 57.3739 20.5315 56.6992 21.6797C56.0245 22.822 55.0953 23.7038 53.9116 24.3253C52.7279 24.9408 51.3725 25.2486 49.8455 25.2486C48.141 25.2486 46.6436 24.8728 45.3533 24.1211C44.0631 23.3635 43.0569 22.2893 42.3349 20.8984C41.6187 19.5017 41.2607 17.8445 41.2607 15.9268C41.2607 14.4531 41.4737 13.1392 41.8999 11.9851C42.3319 10.825 42.9356 9.84257 43.7109 9.03764C44.4863 8.23272 45.3888 7.62015 46.4187 7.19993C47.4485 6.77971 48.5642 6.5696 49.7656 6.5696C50.7955 6.5696 51.7543 6.72053 52.642 7.02237C53.5298 7.3183 54.317 7.73852 55.0036 8.28303C55.696 8.82753 56.2612 9.47561 56.6992 10.2273C57.1372 10.973 57.4183 11.7957 57.5426 12.6953H53.6364ZM64.4163 25.2575C63.5463 25.2575 62.7709 25.1065 62.0903 24.8047C61.4097 24.4969 60.8711 24.0442 60.4745 23.4464C60.0839 22.8427 59.8886 22.091 59.8886 21.1914C59.8886 20.4338 60.0277 19.7976 60.3058 19.2827C60.584 18.7678 60.9628 18.3535 61.4422 18.0398C61.9216 17.7261 62.4661 17.4893 63.0757 17.3295C63.6913 17.1697 64.3364 17.0573 65.0111 16.9922C65.8042 16.9093 66.4434 16.8324 66.9287 16.7614C67.414 16.6844 67.7662 16.572 67.9852 16.424C68.2042 16.276 68.3137 16.0571 68.3137 15.767V15.7138C68.3137 15.1515 68.1361 14.7165 67.781 14.4087C67.4318 14.101 66.9346 13.9471 66.2895 13.9471C65.6089 13.9471 65.0673 14.098 64.6649 14.3999C64.2624 14.6958 63.9961 15.0687 63.8659 15.5185L60.368 15.2344C60.5455 14.4058 60.8947 13.6896 61.4156 13.0859C61.9364 12.4763 62.6082 12.0088 63.4308 11.6832C64.2594 11.3518 65.2182 11.1861 66.3073 11.1861C67.0648 11.1861 67.7899 11.2749 68.4823 11.4524C69.1807 11.63 69.7992 11.9052 70.3378 12.2781C70.8823 12.6509 71.3114 13.1303 71.6251 13.7163C71.9388 14.2963 72.0956 14.9917 72.0956 15.8026V25H68.509V23.109H68.4024C68.1834 23.5352 67.8905 23.911 67.5235 24.2365C67.1566 24.5561 66.7156 24.8076 66.2007 24.9911C65.6858 25.1687 65.091 25.2575 64.4163 25.2575ZM65.4994 22.6474C66.0557 22.6474 66.547 22.5379 66.9731 22.3189C67.3992 22.094 67.7336 21.7921 67.9763 21.4134C68.219 21.0346 68.3403 20.6055 68.3403 20.1261V18.679C68.2219 18.7559 68.0592 18.8269 67.852 18.892C67.6508 18.9512 67.4229 19.0075 67.1684 19.0607C66.9139 19.1081 66.6594 19.1525 66.4049 19.1939C66.1504 19.2294 65.9196 19.262 65.7124 19.2915C65.2686 19.3567 64.8809 19.4602 64.5494 19.6023C64.218 19.7443 63.9606 19.9367 63.7771 20.1793C63.5936 20.4161 63.5019 20.712 63.5019 21.0671C63.5019 21.582 63.6883 21.9756 64.0612 22.2479C64.44 22.5142 64.9194 22.6474 65.4994 22.6474ZM86.3756 15.2521L82.9133 15.4652C82.8541 15.1693 82.7268 14.9029 82.5315 14.6662C82.3362 14.4235 82.0787 14.2312 81.7591 14.0891C81.4455 13.9412 81.0696 13.8672 80.6317 13.8672C80.0457 13.8672 79.5515 13.9915 79.1491 14.2401C78.7466 14.4827 78.5454 14.8082 78.5454 15.2166C78.5454 15.5421 78.6756 15.8174 78.936 16.0423C79.1964 16.2672 79.6433 16.4477 80.2765 16.5838L82.7446 17.081C84.0703 17.3532 85.0587 17.7912 85.7098 18.3949C86.3608 18.9986 86.6863 19.7917 86.6863 20.7741C86.6863 21.6679 86.423 22.4521 85.8962 23.1268C85.3754 23.8015 84.6592 24.3282 83.7478 24.707C82.8422 25.0799 81.7976 25.2663 80.6139 25.2663C78.8087 25.2663 77.3705 24.8905 76.2993 24.1388C75.2339 23.3813 74.6095 22.3514 74.426 21.0494L78.1459 20.854C78.2583 21.4045 78.5306 21.8247 78.9626 22.1147C79.3947 22.3988 79.9481 22.5408 80.6228 22.5408C81.2857 22.5408 81.8183 22.4136 82.2208 22.1591C82.6292 21.8987 82.8363 21.5643 82.8422 21.1559C82.8363 20.8126 82.6913 20.5315 82.4072 20.3125C82.1231 20.0876 81.6852 19.916 81.0933 19.7976L78.7318 19.3271C77.4001 19.0607 76.4088 18.5991 75.7577 17.9421C75.1126 17.2852 74.79 16.4477 74.79 15.4297C74.79 14.5537 75.0268 13.7991 75.5003 13.1658C75.9797 12.5326 76.6514 12.0443 77.5155 11.701C78.3856 11.3577 79.4036 11.1861 80.5695 11.1861C82.2918 11.1861 83.6472 11.5501 84.6356 12.2781C85.6299 13.006 86.2099 13.9974 86.3756 15.2521Z" fill="#101828"/>
<path d="M99.0021 12.0472C98.9311 11.3311 98.6263 10.7747 98.0877 10.3782C97.5491 9.98165 96.8182 9.78338 95.8949 9.78338C95.2675 9.78338 94.7378 9.87216 94.3058 10.0497C93.8737 10.2214 93.5423 10.4611 93.3114 10.7688C93.0865 11.0766 92.9741 11.4258 92.9741 11.8164C92.9622 12.1419 93.0303 12.426 93.1783 12.6687C93.3321 12.9113 93.5423 13.1214 93.8086 13.299C94.0749 13.4706 94.3827 13.6216 94.7319 13.7518C95.0811 13.8761 95.454 13.9826 95.8505 14.0714L97.484 14.462C98.2771 14.6396 99.0051 14.8763 99.668 15.1722C100.331 15.4682 100.905 15.8321 101.39 16.2642C101.876 16.6963 102.251 17.2053 102.518 17.7912C102.79 18.3771 102.929 19.0489 102.935 19.8065C102.929 20.9192 102.645 21.8839 102.083 22.7006C101.526 23.5115 100.721 24.1418 99.668 24.5916C98.6204 25.0355 97.3568 25.2575 95.8771 25.2575C94.4093 25.2575 93.1309 25.0326 92.0419 24.5827C90.9588 24.1329 90.1125 23.4671 89.5028 22.5852C88.8991 21.6974 88.5825 20.5996 88.5529 19.2915H92.2727C92.3142 19.9012 92.4888 20.4102 92.7965 20.8185C93.1102 21.221 93.5275 21.5258 94.0483 21.733C94.575 21.9342 95.1699 22.0348 95.8327 22.0348C96.4838 22.0348 97.049 21.9401 97.5284 21.7507C98.0137 21.5613 98.3896 21.2979 98.6559 20.9606C98.9222 20.6232 99.0554 20.2356 99.0554 19.7976C99.0554 19.3892 98.9341 19.0459 98.6914 18.7678C98.4547 18.4896 98.1055 18.2528 97.6438 18.0575C97.1881 17.8622 96.6288 17.6847 95.9659 17.5249L93.9862 17.0277C92.4532 16.6548 91.2429 16.0719 90.3551 15.2788C89.4673 14.4857 89.0264 13.4174 89.0323 12.0739C89.0264 10.973 89.3194 10.0112 89.9112 9.18857C90.509 8.36589 91.3287 7.72372 92.3704 7.26207C93.4121 6.80043 94.5958 6.5696 95.9215 6.5696C97.271 6.5696 98.4487 6.80043 99.4549 7.26207C100.467 7.72372 101.254 8.36589 101.816 9.18857C102.379 10.0112 102.669 10.9641 102.686 12.0472H99.0021ZM111.664 25.2663C110.261 25.2663 109.054 24.9822 108.042 24.4141C107.036 23.84 106.261 23.0291 105.716 21.9815C105.171 20.928 104.899 19.6822 104.899 18.244C104.899 16.8413 105.171 15.6102 105.716 14.5508C106.261 13.4914 107.027 12.6657 108.015 12.0739C109.01 11.482 110.176 11.1861 111.513 11.1861C112.413 11.1861 113.25 11.3311 114.026 11.6211C114.807 11.9052 115.488 12.3343 116.068 12.9084C116.653 13.4825 117.109 14.2045 117.435 15.0746C117.76 15.9387 117.923 16.9508 117.923 18.1108V19.1495H106.408V16.8058H114.363C114.363 16.2612 114.245 15.7789 114.008 15.3587C113.771 14.9384 113.443 14.61 113.022 14.3732C112.608 14.1306 112.126 14.0092 111.575 14.0092C111.001 14.0092 110.492 14.1424 110.048 14.4087C109.61 14.6692 109.267 15.0213 109.019 15.4652C108.77 15.9032 108.643 16.3915 108.637 16.93V19.1584C108.637 19.8331 108.761 20.4161 109.01 20.9073C109.264 21.3986 109.622 21.7773 110.084 22.0437C110.546 22.31 111.093 22.4432 111.726 22.4432C112.147 22.4432 112.531 22.384 112.88 22.2656C113.23 22.1473 113.528 21.9697 113.777 21.733C114.026 21.4962 114.215 21.2062 114.345 20.8629L117.843 21.0938C117.666 21.9342 117.302 22.6681 116.751 23.2955C116.207 23.9169 115.502 24.4022 114.638 24.7514C113.78 25.0947 112.789 25.2663 111.664 25.2663ZM122.983 25L119.272 11.3636H123.099L125.212 20.5256H125.336L127.538 11.3636H131.293L133.53 20.4723H133.646L135.723 11.3636H139.541L135.839 25H131.835L129.491 16.424H129.322L126.978 25H122.983ZM145.447 25.2575C144.577 25.2575 143.801 25.1065 143.121 24.8047C142.44 24.4969 141.901 24.0442 141.505 23.4464C141.114 22.8427 140.919 22.091 140.919 21.1914C140.919 20.4338 141.058 19.7976 141.336 19.2827C141.614 18.7678 141.993 18.3535 142.472 18.0398C142.952 17.7261 143.496 17.4893 144.106 17.3295C144.722 17.1697 145.367 17.0573 146.041 16.9922C146.834 16.9093 147.474 16.8324 147.959 16.7614C148.444 16.6844 148.796 16.572 149.015 16.424C149.234 16.276 149.344 16.0571 149.344 15.767V15.7138C149.344 15.1515 149.166 14.7165 148.811 14.4087C148.462 14.101 147.965 13.9471 147.32 13.9471C146.639 13.9471 146.098 14.098 145.695 14.3999C145.293 14.6958 145.026 15.0687 144.896 15.5185L141.398 15.2344C141.576 14.4058 141.925 13.6896 142.446 13.0859C142.967 12.4763 143.638 12.0088 144.461 11.6832C145.29 11.3518 146.249 11.1861 147.338 11.1861C148.095 11.1861 148.82 11.2749 149.513 11.4524C150.211 11.63 150.829 11.9052 151.368 12.2781C151.913 12.6509 152.342 13.1303 152.655 13.7163C152.969 14.2963 153.126 14.9917 153.126 15.8026V25H149.539V23.109H149.433C149.214 23.5352 148.921 23.911 148.554 24.2365C148.187 24.5561 147.746 24.8076 147.231 24.9911C146.716 25.1687 146.121 25.2575 145.447 25.2575ZM146.53 22.6474C147.086 22.6474 147.577 22.5379 148.003 22.3189C148.43 22.094 148.764 21.7921 149.007 21.4134C149.249 21.0346 149.371 20.6055 149.371 20.1261V18.679C149.252 18.7559 149.089 18.8269 148.882 18.892C148.681 18.9512 148.453 19.0075 148.199 19.0607C147.944 19.1081 147.69 19.1525 147.435 19.1939C147.181 19.2294 146.95 19.262 146.743 19.2915C146.299 19.3567 145.911 19.4602 145.58 19.6023C145.248 19.7443 144.991 19.9367 144.807 20.1793C144.624 20.4161 144.532 20.712 144.532 21.0671C144.532 21.582 144.719 21.9756 145.091 22.2479C145.47 22.5142 145.95 22.6474 146.53 22.6474Z" fill="#14C8B8"/>
<defs>
<linearGradient id="paint0_linear_665_2873" x1="16" y1="0" x2="16" y2="32" gradientUnits="userSpaceOnUse">
<stop stop-color="white"/>
<stop offset="1" stop-color="#D0D5DD"/>
</linearGradient>
<clipPath id="clip0_665_2873">
<rect width="32" height="32" rx="8" fill="white"/>
</clipPath>
<clipPath id="clip1_665_2873">
<rect width="14" height="23" fill="white" transform="translate(9 4)"/>
</clipPath>
</defs>
</svg>
